<svg width="528" height="431" fill="none" xmlns="http://www.w3.org/2000/svg"><g opacity=".15"><path d="M70.896 231.293a242.6 242.6 0 0 0 21.777 19.54 239.21 239.21 0 0 0 63.501 36.203 241.013 241.013 0 0 0 64.757 14.91c68.075 6.022 138.253-16.801 190.676-68.593 48.966-48.376 72.549-112.416 71.253-176.196-2.885-15.84-9.268-13.793-9.052-21.97 1.519 1.23 8.315 7.794 13.301 14.92 62.436 94.049 51.753 222.115-31.573 304.442-76.379 75.46-190.446 89.424-280.781 42.276-21.616-11.284-41.874-26.059-59.93-44.336a242.958 242.958 0 0 1-22.514-26.286 239.286 239.286 0 0 1-38.868-80.74A241.045 241.045 0 0 1 46 201.725a242.295 242.295 0 0 0 24.896 29.568Z" fill="#3A7CEB"/><path d="M226.149 37.645a38.634 38.634 0 0 1 9.487 15.858 249.746 249.746 0 0 1 1.564 8.056c7.976 45.244 2.963 92.311-15 135.218-7.726-36.792-24.122-72.135-49.227-102.76a237.727 237.727 0 0 0-7.108-8.296c-12.723-13.79-7.789-35.33 5.452-48.411 15.232-15.05 39.782-14.897 54.832.335Z" fill="#E23E2B"/><path d="M252.812 15.794c20.393-20.147 53.253-19.949 73.402.444 12.906 13.066 18.637 29.054 14.889 45.733l-.525 2.34c-9.871 43.089-31.711 83.97-65.485 117.337-15.105 14.925-31.692 27.442-49.272 37.558a239.377 239.377 0 0 1-20.53 10.539 239.275 239.275 0 0 0 16.909-32.971c17.961-42.904 22.974-89.971 14.997-135.215-.058-.674-.621-3.389-.621-3.389-2.028-15.533 4.232-30.514 16.236-42.376Z" fill="#F0B400"/><path d="M205.292 229.745a239.542 239.542 0 0 0 20.531-10.539c17.58-10.116 34.164-22.633 49.272-37.558 33.77-33.367 55.613-74.248 65.481-117.337.528-2.306.782-4.01 1.249-6.363 2.705-13.53 9.62-26.193 20.179-36.626 28.14-27.804 72.518-29.257 101.305.616 7.218 7.493 18.755 16.447 19.888 39.8a239.748 239.748 0 0 1-1.78 29.577c-6.344 52.019-29.634 102.345-69.808 142.035-52.42 51.794-122.603 74.617-190.675 68.598a241.272 241.272 0 0 1-64.758-14.91 239.254 239.254 0 0 1-63.506-36.203c38.303 2.076 77.016-4.955 112.622-21.09Z" fill="#4ACFD2"/></g><path d="M22.9 252.75a223.254 223.254 0 0 0 20.031 17.973 220.054 220.054 0 0 0 58.41 33.301 221.71 221.71 0 0 0 59.566 13.714c62.617 5.54 127.168-15.454 175.388-63.093 45.04-44.498 66.733-103.404 65.54-162.07-2.653-14.57-8.525-12.687-8.325-20.209 1.396 1.132 7.648 7.17 12.234 13.724 57.431 86.509 47.604 204.307-29.042 280.034-70.255 69.41-175.177 82.255-258.27 38.886-19.883-10.379-38.517-23.969-55.125-40.781a223.418 223.418 0 0 1-20.709-24.178 220.109 220.109 0 0 1-35.752-74.267A221.718 221.718 0 0 1 0 225.552a222.85 222.85 0 0 0 22.9 27.198Z" fill="#3A7CEB"/><path d="M165.706 74.627a35.533 35.533 0 0 1 8.727 14.587c.522 2.46.998 4.936 1.438 7.41 7.337 41.617 2.726 84.91-13.797 124.377-7.106-33.843-22.189-66.352-45.281-94.521a217.606 217.606 0 0 0-6.537-7.631c-11.703-12.685-7.165-32.497 5.014-44.53 14.011-13.844 36.593-13.703 50.436.308Z" fill="#E23E2B"/><path d="M190.232 54.528c18.758-18.532 48.983-18.35 67.517.408 11.871 12.019 17.143 26.724 13.695 42.067l-.483 2.152c-9.079 39.635-29.169 77.238-60.234 107.93-13.894 13.729-29.152 25.242-45.322 34.547a220.443 220.443 0 0 1-18.884 9.693 220.093 220.093 0 0 0 15.553-30.327c16.52-39.464 21.132-82.758 13.795-124.374-.054-.62-.571-3.117-.571-3.117-1.866-14.288 3.892-28.068 14.934-38.979Z" fill="#F0B400"/><path d="M146.521 251.325a220.313 220.313 0 0 0 18.885-9.693c16.17-9.305 31.425-20.819 45.322-34.548 31.063-30.691 51.155-68.295 60.231-107.929.486-2.12.719-3.688 1.149-5.853 2.488-12.446 8.848-24.093 18.561-33.69 25.884-25.574 66.704-26.91 93.183.567 6.64 6.892 17.252 15.128 18.294 36.61.017 9.081-.532 18.17-1.638 27.205-5.835 47.848-27.258 94.14-64.211 130.647-48.217 47.642-112.773 68.636-175.388 63.099a221.943 221.943 0 0 1-59.566-13.715 220.077 220.077 0 0 1-58.415-33.3c35.233 1.909 70.842-4.558 103.593-19.4Z" fill="#4ACFD2"/></svg>